<svg width="1000" height="900" viewBox="0 0 1000 900" xmlns="http://www.w3.org/2000/svg">
  <rect width="100%" height="100%" fill="white"/>

  <style>
    .symbol-label {
      font-family: Arial, sans-serif;
      font-size: 14px;
      font-weight: bold;
      text-anchor: middle;
    }
  </style>

  <g transform="translate(50, 50)">
    <text x="50" y="-10" class="symbol-label">1. Koru</text>
    <path d="M 50 10 A 40 40 0 1 1 50 90 A 20 20 0 1 0 50 50 L 50 50" fill="none" stroke="black" stroke-width="5" stroke-linecap="round"/>
  </g>
  
  <g transform="translate(250, 50)">
    <text x="100" y="-10" class="symbol-label">2. Niho Taniwha</text>
    <polyline points="0,50 25,0 50,50 75,0 100,50 125,0 150,50 175,0 200,50" fill="black" stroke="black" stroke-width="1"/>
  </g>

  <g transform="translate(500, 50)">
    <text x="50" y="-10" class="symbol-label">3. Hei Matau</text>
    <path d="M 50 10 L 50 100 A 40 40 0 0 1 10 140 L 10 130" fill="none" stroke="black" stroke-width="8" stroke-linecap="round" stroke-linejoin="round"/>
    <circle cx="50" cy="10" r="4" fill="black"/>
  </g>

  <g transform="translate(750, 50)">
    <text x="100" y="-10" class="symbol-label">4. Mangōpare</text>
    <path d="M 10 50 C 10 10, 90 10, 100 50 C 110 90, 190 90, 190 50 L 10 50 Z" fill="black" stroke="black" stroke-width="2"/>
    <circle cx="50" cy="30" r="5" fill="white"/>
    <circle cx="150" cy="30" r="5" fill="white"/>
  </g>
  
  <g transform="translate(50, 250)">
    <text x="75" y="-10" class="symbol-label">5. Pikorua</text>
    <path d="M 60 10 L 90 40 L 90 140 L 60 110 Z" fill="black"/>
    <path d="M 10 60 L 40 90 L 140 90 L 110 60 Z" fill="black"/>
    <path d="M 80 80 L 90 90 L 70 90 L 80 80 Z" fill="white"/>
  </g>

  <g transform="translate(250, 250)">
    <text x="100" y="-10" class="symbol-label">6. Kaokao</text>
    <polyline points="0,10 50,90 100,10 150,90 200,10" fill="none" stroke="black" stroke-width="5"/>
    <polyline points="0,30 50,110 100,30 150,110 200,30" fill="none" stroke="black" stroke-width="5"/>
  </g>
  
  <g transform="translate(500, 250)">
    <text x="50" y="-10" class="symbol-label">7. Poutama</text>
    <path d="M 10 200 L 10 160 H 50 V 120 H 10 V 80 H 50 V 40 H 10 V 0" fill="none" stroke="black" stroke-width="5" stroke-linecap="butt"/>
  </g>

  <g transform="translate(750, 250)">
    <text x="50" y="-10" class="symbol-label">8. Toki</text>
    <rect x="30" y="10" width="40" height="100" fill="black"/>
    <polygon points="10 110, 90 110, 50 145" fill="black"/>
  </g>

  <g transform="translate(50, 450)">
    <text x="100" y="-10" class="symbol-label">9. Pātikitiki</text>
    <polygon points="50 0, 100 50, 50 100, 0 50" fill="black"/>
    <polygon points="100 0, 150 50, 100 100, 50 50" fill="black"/>
    <polygon points="150 0, 200 50, 150 100, 100 50" fill="black"/>
  </g>
  
  <g transform="translate(250, 450)">
    <text x="75" y="-10" class="symbol-label">10. Manaia</text>
    <path d="M 20 130 L 20 80 C 50 40, 120 40, 120 80 L 100 80 L 100 130 Z" fill="black"/>
    <polygon points="120 80, 140 70, 120 90" fill="black"/>
    <circle cx="110" cy="55" r="5" fill="white"/>
  </g>

  <g transform="translate(500, 450)">
    <text x="50" y="-10" class="symbol-label">11. Hei Tiki</text>
    <circle cx="50" cy="30" r="25" fill="black"/>
    <circle cx="40" cy="30" r="8" fill="white"/>
    <circle cx="60" cy="30" r="8" fill="white"/>
    <rect x="35" y="55" width="30" height="50" fill="black"/>
    <rect x="25" y="105" width="50" height="10" fill="black"/>
  </g>

  <g transform="translate(750, 450)">
    <text x="100" y="-10" class="symbol-label">12. Mangō/Ika</text>
    <path d="M 10 40 C 50 10, 150 10, 190 40 C 150 70, 50 70, 10 40 Z" fill="black"/>
    <circle cx="30" cy="40" r="5" fill="white"/>
    <polygon points="190 40, 200 30, 200 50" fill="black"/>
  </g>

  <g transform="translate(50, 650)">
    <text x="50" y="-10" class="symbol-label">13. Whetū</text>
    <polygon points="50,10 61,35 88,40 68,62 72,90 50,75 28,90 32,62 12,40 39,35" fill="black" stroke="black" stroke-width="1"/>
  </g>

  <g transform="translate(250, 650)">
    <text x="100" y="-10" class="symbol-label">14. Unaunahi</text>
    <path d="M 0 50 A 25 25 0 0 1 50 50 L 50 50 A 25 25 0 0 1 100 50 L 100 50 A 25 25 0 0 1 150 50 L 150 50 A 25 25 0 0 1 200 50" fill="none" stroke="black" stroke-width="3"/>
  </g>
  
  <g transform="translate(500, 650)">
    <text x="75" y="-10" class="symbol-label">15. Honu</text>
    <circle cx="75" cy="50" r="40" fill="black"/>
    <rect x="65" y="5" width="20" height="15" fill="black"/>
    <rect x="20" y="40" width="10" height="30" fill="black"/>
    <rect x="120" y="40" width="10" height="30" fill="black"/>
  </g>

  <g transform="translate(750, 650)">
    <text x="100" y="-10" class="symbol-label">16. Pakati</text>
    <polyline points="0,50 10,0 20,50 30,0 40,50 50,0 60,50 70,0 80,50 90,0 100,50 110,0 120,50 130,0 140,50 150,0 160,50 170,0 180,50 190,0 200,50" fill="black" stroke="black" stroke-width="1"/>
  </g>
  
  <g transform="translate(50, 800)">
    <text x="100" y="-10" class="symbol-label">17. Ahu Ahu Mataroa</text>
    <line x1="10" y1="10" x2="10" y2="90" stroke="black" stroke-width="5"/>
    <line x1="30" y1="10" x2="30" y2="90" stroke="black" stroke-width="5"/>
    <line x1="50" y1="10" x2="50" y2="90" stroke="black" stroke-width="5"/>
    <line x1="70" y1="10" x2="70" y2="90" stroke="black" stroke-width="5"/>
    <line x1="90" y1="10" x2="90" y2="90" stroke="black" stroke-width="5"/>
    <line x1="110" y1="10" x2="110" y2="90" stroke="black" stroke-width="5"/>
    <line x1="130" y1="10" x2="130" y2="90" stroke="black" stroke-width="5"/>
    <line x1="150" y1="10" x2="150" y2="90" stroke="black" stroke-width="5"/>
    <line x1="170" y1="10" x2="170" y2="90" stroke="black" stroke-width="5"/>
    <line x1="190" y1="10" x2="190" y2="90" stroke="black" stroke-width="5"/>
  </g>

  <g transform="translate(300, 800)">
    <text x="75" y="-10" class="symbol-label">18. Hikuaua</text>
    <path d="M 75 10 L 10 90 L 140 90 Z" fill="none" stroke="black" stroke-width="5"/>
    <circle cx="75" cy="40" r="4" fill="black"/>
    <circle cx="50" cy="70" r="4" fill="black"/>
    <circle cx="100" cy="70" r="4" fill="black"/>
  </g>

  <g transform="translate(550, 800)">
    <text x="100" y="-10" class="symbol-label">19. Taratarekae</text>
    <polygon points="0 0, 10 50, 20 0" fill="black"/>
    <polygon points="20 0, 30 50, 40 0" fill="black"/>
    <polygon points="40 0, 50 50, 60 0" fill="black"/>
    <polygon points="60 0, 70 50, 80 0" fill="black"/>
    <polygon points="80 0, 90 50, 100 0" fill="black"/>
    <polygon points="100 0, 110 50, 120 0" fill="black"/>
    <polygon points="120 0, 130 50, 140 0" fill="black"/>
    <polygon points="140 0, 150 50, 160 0" fill="black"/>
    <polygon points="160 0, 170 50, 180 0" fill="black"/>
    <polygon points="180 0, 190 50, 200 0" fill="black"/>
  </g>
  
  <g transform="translate(800, 800)">
    <text x="50" y="-10" class="symbol-label">20. Roimata</text>
    <path d="M 50 10 A 30 30 0 1 0 50 90 A 20 20 0 0 0 50 10 Z" fill="black"/>
  </g>
  
</svg>
